<?xml version="1.0" standalone="no"?>
<!DOCTYPE svg PUBLIC "-//W3C//DTD SVG 20010904//EN"
 "http://www.w3.org/TR/2001/REC-SVG-20010904/DTD/svg10.dtd">
<svg version="1.0" xmlns="http://www.w3.org/2000/svg"
 width="260.000000pt" height="260.000000pt" viewBox="0 0 260.000000 260.000000"
 preserveAspectRatio="xMidYMid meet">
<metadata>
Created by potrace 1.14, written by Peter Selinger 2001-2017
</metadata>
<g transform="translate(0.000000,260.000000) scale(0.100000,-0.100000)"
fill="#000000" stroke="none">
<path d="M0 1300 l0 -1300 1300 0 1300 0 0 1300 0 1300 -1300 0 -1300 0 0
-1300z m1365 1178 c208 -224 339 -455 379 -667 23 -120 19 -250 -7 -234 -6 4
-8 -3 -4 -18 5 -22 5 -22 -7 -6 -9 12 -22 16 -40 13 -23 -4 -26 -1 -26 22 0
19 -3 23 -9 14 -6 -9 -10 -1 -15 25 -18 109 -136 308 -264 444 l-77 82 -64
-69 c-118 -127 -214 -294 -262 -459 -10 -33 -18 -50 -18 -39 -1 32 -33 25 -49
-11 -10 -24 -15 -27 -22 -15 -8 12 -10 11 -11 -5 -3 -45 -17 44 -18 116 -3
203 82 422 257 664 72 99 170 215 182 215 5 0 38 -33 75 -72z m-18 -744 c48
-52 110 -144 146 -222 28 -59 32 -77 31 -153 0 -77 -3 -93 -33 -154 -39 -78
-95 -139 -154 -165 -37 -17 -43 -17 -70 -3 -54 27 -126 104 -157 166 -26 51
-30 72 -30 137 0 111 24 181 107 313 35 55 93 117 110 117 9 0 31 -16 50 -36z
m-410 -176 c-3 -7 -5 -2 -5 12 0 14 2 19 5 13 2 -7 2 -19 0 -25z m-297 -567
c0 -3 -9 -12 -20 -19 -29 -18 -25 -39 11 -58 37 -18 72 -8 114 34 21 20 23 27
13 40 -11 13 -10 14 2 10 8 -2 19 -28 25 -59 66 -324 340 -510 633 -429 86 24
137 54 214 128 86 81 146 207 160 332 2 18 10 26 28 28 24 2 24 2 6 -12 -24
-19 -15 -41 23 -61 28 -14 35 -14 81 1 47 15 63 35 40 49 -27 17 -2 25 81 25
l91 0 -7 -67 c-10 -101 -34 -195 -70 -278 -26 -60 -31 -69 -66 -131 -34 -61
-147 -184 -214 -234 -65 -48 -162 -99 -220 -116 -95 -28 -136 -35 -220 -41
-226 -13 -432 61 -597 216 -148 139 -234 292 -277 496 -13 62 -20 143 -12 150
7 8 181 4 181 -4z m194 -57 c15 -125 127 -284 243 -343 79 -39 129 -52 215
-52 118 0 212 38 299 123 84 81 135 176 154 285 11 66 29 67 22 2 -26 -212
-191 -390 -404 -434 -63 -13 -81 -13 -147 -1 -41 8 -100 27 -132 42 -82 39
-182 141 -224 229 -32 67 -64 191 -54 207 11 18 22 -4 28 -58z m82 45 c18 -15
18 -28 -3 -51 -16 -17 -15 -19 15 -30 23 -9 31 -17 26 -28 -18 -42 -16 -48 13
-52 15 -2 27 -7 26 -13 0 -5 -3 -19 -5 -30 -2 -17 2 -20 30 -18 29 1 33 -2 29
-19 -9 -34 2 -48 34 -41 25 5 29 2 29 -15 0 -30 17 -36 46 -17 19 12 25 13 23
3 -3 -17 11 -48 22 -48 4 0 17 10 29 22 11 12 20 17 20 12 0 -6 7 -19 15 -30
14 -19 15 -18 34 6 19 24 20 24 41 5 22 -19 22 -19 36 0 8 10 14 23 14 27 0 5
10 2 22 -6 31 -22 35 -20 41 14 6 27 9 29 37 24 28 -6 30 -5 30 25 0 29 3 31
28 29 25 -3 27 0 26 30 -2 29 1 32 27 32 31 0 35 10 19 41 -9 16 -6 21 15 31
26 11 27 20 11 59 -5 10 2 20 18 29 14 7 23 17 20 22 -3 4 5 7 17 5 31 -5 33
-16 15 -86 -37 -147 -125 -254 -258 -316 -76 -36 -87 -39 -173 -38 -85 0 -98
3 -168 37 -131 63 -227 181 -257 316 -6 30 -14 63 -16 72 -4 14 1 16 27 13 17
-3 37 -10 45 -16z m147 -26 c9 -50 72 -125 125 -150 24 -12 60 -18 102 -18 53
0 74 5 113 28 50 30 91 81 112 144 15 44 42 54 69 24 18 -20 18 -21 -9 -31
-26 -10 -27 -11 -11 -35 16 -24 15 -25 -9 -31 -20 -5 -24 -10 -19 -30 5 -21 3
-24 -20 -24 -23 0 -26 -3 -20 -26 6 -23 4 -25 -22 -22 -24 2 -30 -1 -32 -20
-3 -18 -8 -21 -28 -16 -20 5 -24 2 -24 -15 0 -25 -7 -26 -31 -5 -16 15 -19 14
-32 -12 -14 -27 -14 -27 -26 -6 -15 27 -28 28 -36 2 -7 -23 -25 -27 -25 -6 0
22 -17 28 -40 16 -17 -9 -20 -7 -26 15 -6 26 -18 32 -29 15 -12 -19 -25 -10
-25 16 0 23 -3 26 -26 21 -22 -4 -25 -1 -22 22 2 21 -2 27 -20 29 -20 3 -23 8
-18 28 5 19 3 24 -14 24 -22 0 -25 12 -9 41 9 17 7 21 -10 26 -23 6 -28 28 -8
37 6 2 23 4 37 3 20 -2 26 -9 33 -44z m121 13 c15 -31 35 -45 93 -61 30 -8
101 29 115 61 12 25 47 40 73 31 42 -17 -61 -147 -131 -166 -44 -12 -114 1
-156 31 -31 21 -63 70 -73 111 -7 26 -5 27 28 27 30 0 37 -5 51 -34z"/>
<path d="M1675 1590 c3 -5 8 -10 11 -10 2 0 4 5 4 10 0 6 -5 10 -11 10 -5 0
-7 -4 -4 -10z"/>
<path d="M695 862 c-5 -4 -23 -22 -39 -39 -24 -27 -27 -35 -16 -48 7 -9 28
-15 50 -15 33 0 43 6 71 41 31 40 32 42 14 55 -20 15 -64 18 -80 6z"/>
<path d="M1820 861 c-33 -9 -33 -48 0 -73 20 -14 35 -17 73 -12 39 6 47 10 47
28 -1 52 -52 76 -120 57z"/>
<path d="M726 693 c-32 -56 -28 -73 17 -73 36 0 54 15 81 67 24 47 21 53 -28
53 -42 0 -45 -2 -70 -47z"/>
<path d="M1734 726 c-7 -20 22 -73 43 -80 29 -8 91 -11 98 -4 4 4 4 20 0 36
-4 21 -16 35 -40 46 -41 20 -94 21 -101 2z"/>
<path d="M859 629 c-19 -7 -32 -24 -47 -62 -11 -29 -18 -55 -15 -59 7 -13 58
-9 76 5 19 15 48 94 40 113 -6 16 -17 16 -54 3z"/>
<path d="M1662 593 c3 -41 33 -69 84 -79 26 -5 33 -3 39 14 14 47 -44 102
-107 102 -16 0 -19 -6 -16 -37z"/>
<path d="M975 550 c-36 -14 -53 -43 -56 -95 -3 -45 -1 -50 19 -53 13 -2 32 7
47 22 20 20 25 35 25 75 0 55 -5 62 -35 51z"/>
<path d="M1560 512 c0 -43 10 -59 59 -92 38 -26 51 -17 51 35 0 35 -5 43 -44
73 -45 35 -66 30 -66 -16z"/>
<path d="M1077 480 c-24 -19 -27 -28 -27 -81 0 -71 17 -85 57 -48 23 22 25 29
20 78 -7 68 -16 77 -50 51z"/>
<path d="M1446 474 c-15 -39 -5 -71 32 -107 45 -44 62 -36 62 26 0 60 -76 127
-94 81z"/>
<path d="M1195 444 c-18 -28 -17 -74 4 -126 13 -34 32 -29 57 17 18 33 18 35
-1 81 -24 57 -37 63 -60 28z"/>
<path d="M1331 457 c-25 -31 -24 -74 4 -122 l28 -47 20 21 c28 28 27 77 -4
123 -27 42 -31 44 -48 25z"/>
</g>
</svg>
